Coordinates
version=1
nRows=11
nColumns=40
inDegrees=yes

Units are S.I. units (second, meters, Newtons, ...)
Angles are in degrees.

endheader
time	pelvis_tilt	pelvis_list	pelvis_rotation	pelvis_tx	pelvis_ty	pelvis_tz	hip_flexion_r	hip_adduction_r	hip_rotation_r	knee_angle_r	knee_angle_r_beta	ankle_angle_r	subtalar_angle_r	mtp_angle_r	hip_flexion_l	hip_adduction_l	hip_rotation_l	knee_angle_l	knee_angle_l_beta	ankle_angle_l	subtalar_angle_l	mtp_angle_l	lumbar_extension	lumbar_bending	lumbar_rotation	arm_flex_r	arm_add_r	arm_rot_r	elbow_flex_r	pro_sup_r	wrist_flex_r	wrist_dev_r	arm_flex_l	arm_add_l	arm_rot_l	elbow_flex_l	pro_sup_l	wrist_flex_l	wrist_dev_l
      5.72792857	     -5.53172501	     -4.45740932	     -6.40207699	      1.00568851	      0.92802397	      0.44948167	     24.25428408	     -0.05965058	    -13.62080147	      7.51746670	      7.51746670	      1.92151640	     10.72206303	      8.16395526	      6.25996174	     -6.69390096	    -12.27430219	     16.65580242	     16.65580242	     14.61053794	    -14.07955738	     -4.16754951	     -9.47104086	      4.82484453	      3.34621518	    -10.79522564	    -11.82248014	     -7.61048539	     24.46449933	     46.79063582	      0.00000000	      0.00000000	     20.40778880	    -21.60470827	    -13.36334266	     75.87865755	     47.85556283	      0.00000000	      0.00000000
      5.74085714	     -5.40146154	     -4.62302223	     -6.12943138	      1.00759980	      0.92720196	      0.45178480	     23.53364689	      0.29007850	    -13.87671671	      7.90040684	      7.90040684	      0.13763151	      9.77593367	      2.83117472	      5.68288745	     -7.05866276	    -12.40384651	     16.85421930	     16.85421930	     15.82814630	    -12.94926448	     -2.96415698	     -9.48333894	      4.97379319	      3.25031182	    -10.66640099	    -11.52431899	     -7.23064552	     25.61926190	     46.68850236	      0.00000000	      0.00000000	     20.61078949	    -21.14313692	    -13.34357627	     75.60802978	     47.85989918	      0.00000000	      0.00000000
      5.75378571	     -5.43712242	     -4.73929314	     -5.94354159	      1.00953770	      0.92640240	      0.45413205	     22.96785625	      0.56421277	    -14.11948835	      8.49079693	      8.49079693	     -0.05330002	      9.42500660	      2.68196488	      5.19987134	     -7.30229707	    -12.25949161	     16.79268858	     16.79268858	     16.07942559	    -12.92029531	     -2.98675484	     -9.27294176	      5.10712634	      3.20570802	    -10.17619174	    -11.25733404	     -7.17511434	     25.83829678	     46.67778172	      0.00000000	      0.00000000	     20.46721398	    -20.79215603	    -13.17668310	     75.52807829	     47.84619821	      0.00000000	      0.00000000
      5.76671429	     -5.32638666	     -4.91242164	     -5.66331216	      1.01172826	      0.92572929	      0.45642478	     22.36795810	      0.80211527	    -14.19936547	      9.41659221	      9.41659221	     -0.05472091	      8.86412682	      2.25199903	      4.54603204	     -7.60178229	    -12.07166985	     16.73576801	     16.73576801	     16.36335845	    -12.74436609	     -2.96686172	     -9.19568688	      5.34846735	      3.08583335	     -9.55739182	    -11.10099439	     -7.12569249	     26.14272354	     46.66502133	      0.00000000	      0.00000000	     20.25543421	    -20.39609325	    -12.98739869	     75.32461674	     47.82833466	      0.00000000	      0.00000000
      5.77964286	     -5.17697734	     -4.84707769	     -5.44840387	      1.01404564	      0.92482610	      0.45908469	     21.86185136	      0.92425958	    -13.26497967	     10.32243824	     10.32243824	     -1.55646332	      6.61504983	     -3.16515159	      4.00409439	     -7.80846762	    -12.51757117	     17.09708706	     17.09708706	     17.77438864	    -11.26116574	     -1.19297532	     -9.08233220	      5.22461284	      3.02014970	     -9.36657698	    -11.20448458	     -6.29428935	     27.47652782	     46.51878606	      0.00000000	      0.00000000	     20.26690669	    -20.23403127	    -12.88094884	     74.36312999	     47.81036277	      0.00000000	      0.00000000
      5.79257143	     -5.04617979	     -4.98630833	     -5.18979188	      1.01636844	      0.92429408	      0.46163056	     21.35114143	      1.12495967	    -13.14611434	     11.26552704	     11.26552704	     -1.29036158	      6.06618500	     -3.53833256	      3.40283368	     -8.12920438	    -12.39243748	     17.18830239	     17.18830239	     18.03406366	    -11.07946882	     -1.13672021	     -9.02135592	      5.39950061	      2.90666481	     -8.62147671	    -11.17281732	     -6.23411903	     27.87257050	     46.50171350	      0.00000000	      0.00000000	     19.88922484	    -19.93183248	    -12.74202517	     73.94551397	     47.79122182	      0.00000000	      0.00000000
      5.80550000	     -5.02516270	     -5.07257877	     -4.93917407	      1.01869764	      0.92389819	      0.46421165	     20.80894604	      1.31589448	    -13.05977529	     11.74593089	     11.74593089	     -0.94501261	      5.82749463	     -3.77935680	      2.96656551	     -8.41062392	    -12.21975836	     17.33216959	     17.33216959	     18.17773302	    -11.00466130	     -1.12864066	     -8.80356219	      5.48010366	      2.98108630	     -7.80128043	    -11.06851343	     -6.19967252	     28.22892094	     46.49040847	      0.00000000	      0.00000000	     19.42411110	    -19.34791702	    -12.51963607	     73.66247170	     47.76745520	      0.00000000	      0.00000000
      5.81842857	     -4.86460211	     -5.22518888	     -4.70860852	      1.02091655	      0.92373049	      0.46706467	     20.49490163	      1.61669231	    -12.22184895	     12.73066345	     12.73066345	     -0.76297079	      4.00582098	     -4.91804844	      2.70298369	     -8.97287355	    -12.58379517	     18.21831441	     18.21831441	     19.17556831	     -9.87046397	      0.22627345	     -8.75756662	      5.71163320	      2.74047456	     -6.96351702	    -11.24015182	     -5.82710609	     29.32578582	     46.40990514	      0.00000000	      0.00000000	     19.15164810	    -18.92046405	    -12.93901958	     71.87061963	     47.76249040	      0.00000000	      0.00000000
      5.83135714	     -4.67838907	     -5.33106709	     -4.50718440	      1.02320443	      0.92402475	      0.46982052	     19.98939035	      1.78970918	    -12.14118192	     13.32873003	     13.32873003	     -0.17291875	      3.78684934	     -5.28098538	      2.32728387	     -9.34539656	    -12.41966268	     18.81418198	     18.81418198	     19.17232510	     -9.95412833	      0.33884739	     -8.78339247	      5.83918232	      2.76055633	     -5.91671261	    -11.34313248	     -5.82344331	     29.82546637	     46.39587537	      0.00000000	      0.00000000	     18.49911913	    -18.47892328	    -12.75568055	     71.26142156	     47.73414292	      0.00000000	      0.00000000
      5.84428571	     -4.61957222	     -5.38486287	     -4.30020030	      1.02522186	      0.92436921	      0.47264292	     19.67901514	      1.93115205	    -11.97896755	     13.87999487	     13.87999487	      0.47088241	      3.35480582	     -5.62167979	      2.40446402	     -9.76652179	    -12.25105466	     19.94599440	     19.94599440	     19.15950870	    -10.07851847	      0.48790206	     -8.65138248	      5.93892375	      2.56650652	     -4.67443989	    -11.41156532	     -5.83347733	     30.53607694	     46.37367542	      0.00000000	      0.00000000	     17.76116667	    -18.13018794	    -12.75414648	     70.02999650	     47.70697664	      0.00000000	      0.00000000
      5.85721429	     -4.50286687	     -5.45393337	     -4.13414596	      1.02722036	      0.92504564	      0.47560768	     19.24381092	      2.11450497	    -11.84185789	     14.24985063	     14.24985063	      1.12341001	      3.05897523	     -5.86498200	      2.60673424	    -10.24419955	    -11.99429456	     21.42653976	     21.42653976	     18.99071343	    -10.40334022	      0.53223444	     -8.60837588	      6.01293955	      2.51776592	     -3.38692664	    -11.54845253	     -5.87745309	     31.24126252	     46.35443836	      0.00000000	      0.00000000	     17.04048139	    -17.63203881	    -12.79922664	     68.71835531	     47.68152962	      0.00000000	      0.00000000
